<?xml version="1.0" encoding="iso-8859-1"?>
<!-- Uploaded to: SVG Repo, www.svgrepo.com, Generator: SVG Repo Mixer Tools -->
<svg fill="#ffffff" height="800px" width="800px" version="1.1" id="Capa_1" xmlns="http://www.w3.org/2000/svg" xmlns:xlink="http://www.w3.org/1999/xlink" 
	 viewBox="0 0 512.003 512.003" xml:space="preserve">
<g>
	<g>
		<path d="M505.387,91.232l-10.571-10.571c-0.004-0.003-0.006-0.007-0.01-0.012l-15.873-15.872l-58.2-58.203
			c-8.766-8.765-22.979-8.766-31.745-0.002c-6.909,6.909-8.349,17.192-4.368,25.535L236.491,180.235
			c-20.204-8.15-41.989-12.428-64.431-12.428c-45.969,0-89.186,17.901-121.692,50.406c-67.1,67.1-67.1,176.282,0,243.385
			c32.505,32.504,75.722,50.405,121.69,50.405c45.969,0,89.186-17.901,121.692-50.406c50.21-50.21,62.845-123.984,37.911-186.057
			l148.194-148.191c3.048,1.455,6.35,2.206,9.658,2.206c5.744,0,11.49-2.192,15.873-6.574
			C514.152,114.211,514.152,99.999,505.387,91.232z M244.717,235.498c6.11,4.271,11.908,9.078,17.289,14.459
			c5.417,5.417,10.206,11.224,14.44,17.302l-25.023,25.021c-1.125-7.985-4.781-15.36-10.582-21.157
			c-5.803-5.803-13.178-9.461-21.165-10.585L244.717,235.498z M209.092,292.286c1.393-1.393,3.322-2.192,5.293-2.192
			c1.969,0,3.898,0.799,5.293,2.194c1.392,1.392,2.191,3.319,2.191,5.29s-0.801,3.9-2.188,5.289
			c-1.393,1.393-3.324,2.194-5.295,2.194s-3.9-0.801-5.289-2.188c-1.395-1.395-2.194-3.325-2.194-5.296
			C206.904,295.605,207.705,293.674,209.092,292.286z M209.092,334.614l-37.034,37.032l-29.981-29.979l-1.764-1.764l37.035-37.034
			c1.124,7.985,4.781,15.362,10.586,21.166C193.737,329.834,201.11,333.49,209.092,334.614z M262.004,429.849
			c-24.026,24.025-55.969,37.257-89.947,37.257c-33.976,0-65.919-13.23-89.945-37.255c-49.597-49.598-49.597-130.296,0-179.893
			c24.026-24.026,55.969-37.257,89.947-37.257c9.784,0,19.39,1.133,28.697,3.268l-93.11,93.11c-8.341-3.979-18.624-2.54-25.53,4.368
			c-8.766,8.766-8.766,22.979,0,31.745l28.218,28.216l45.852,45.852c0.005,0.005,0.008,0.008,0.012,0.01l10.571,10.571
			c4.383,4.383,10.128,6.576,15.872,6.576c5.745,0,11.49-2.191,15.872-6.576c6.908-6.909,8.349-17.192,4.368-25.533l93.049-93.049
			C305.411,352.576,294.121,397.733,262.004,429.849z M308.588,235.12c-4.516-5.877-9.458-11.529-14.836-16.907
			c-5.353-5.353-11.002-10.3-16.9-14.847L415.44,64.777l24.943,24.942l6.803,6.803L308.588,235.12z"/>
	</g>
</g>
</svg>