<?xml version="1.0" encoding="iso-8859-1"?>
<!-- Uploaded to: SVG Repo, www.svgrepo.com, Generator: SVG Repo Mixer Tools -->
<!DOCTYPE svg PUBLIC "-//W3C//DTD SVG 1.1//EN" "http://www.w3.org/Graphics/SVG/1.1/DTD/svg11.dtd">
<svg fill="#ffffff" height="800px" width="800px" version="1.1" id="Capa_1" xmlns="http://www.w3.org/2000/svg" xmlns:xlink="http://www.w3.org/1999/xlink" 
	 viewBox="0 0 423.382 423.382" xml:space="preserve">
<g>
	<path d="M329.461,117.77c0-31.458-12.251-61.032-34.494-83.276C272.723,12.25,243.149,0,211.691,0s-61.032,12.25-83.276,34.494
		C106.171,56.738,93.92,86.313,93.92,117.77s12.251,61.032,34.494,83.276c7.699,7.699,16.277,14.199,25.507,19.41
		c-0.039,1.302,0.02,2.552,0.131,3.683l17.629,135.406c1.565,15.203,13.11,28.038,27.51,32.068v19.268c0,6.903,5.597,12.5,12.5,12.5
		s12.5-5.597,12.5-12.5v-19.267c14.403-4.029,25.951-16.866,27.515-32.071l17.594-135.088l0.036-0.317
		c0.11-1.127,0.166-2.377,0.119-3.68c9.232-5.212,17.812-11.712,25.513-19.413C317.21,178.802,329.461,149.228,329.461,117.77z
		 M231.854,357.107l-0.036,0.318c-0.822,8.408-8.653,15.511-17.102,15.511h-6.045c-8.448,0-16.279-7.104-17.103-15.511
		l-16.626-127.706c11.707,3.83,24.074,5.821,36.749,5.821c12.677,0,25.046-1.992,36.755-5.823L231.854,357.107z M248.434,208.424
		c-13.439,4.743-25.021,6.968-36.191,6.968c-11.871,0-24.042-2.4-39.121-7.731c-11.27-4.838-21.631-11.823-30.564-20.757
		c-18.467-18.466-28.637-43.019-28.637-69.134s10.17-50.667,28.637-69.134C161.023,30.169,185.576,20,211.691,20
		s50.668,10.169,69.134,28.636c18.467,18.466,28.637,43.019,28.637,69.134s-10.17,50.667-28.637,69.134
		C271.411,196.318,260.412,203.571,248.434,208.424z"/>
	<path d="M166.63,74.453c7.591,0,13.767-6.176,13.767-13.767c0-7.591-6.176-13.767-13.767-13.767
		c-7.592,0-13.768,6.176-13.768,13.767C152.863,68.277,159.039,74.453,166.63,74.453z"/>
	<path d="M211.691,67.672c7.591,0,13.767-6.176,13.767-13.767c0-7.591-6.176-13.767-13.767-13.767s-13.767,6.176-13.767,13.767
		C197.924,61.496,204.1,67.672,211.691,67.672z"/>
	<path d="M256.751,74.453c7.592,0,13.768-6.176,13.768-13.767c0-7.591-6.176-13.767-13.768-13.767
		c-7.591,0-13.767,6.176-13.767,13.767C242.985,68.277,249.161,74.453,256.751,74.453z"/>
	<path d="M256.751,115.542c-7.591,0-13.767,6.176-13.767,13.767s6.176,13.767,13.767,13.767c7.592,0,13.768-6.176,13.768-13.767
		S264.343,115.542,256.751,115.542z"/>
	<path d="M211.691,118.528c-7.591,0-13.767,6.176-13.767,13.767s6.176,13.767,13.767,13.767s13.767-6.176,13.767-13.767
		S219.282,118.528,211.691,118.528z"/>
	<path d="M166.63,115.542c-7.592,0-13.768,6.176-13.768,13.767s6.176,13.767,13.768,13.767c7.591,0,13.767-6.176,13.767-13.767
		S174.221,115.542,166.63,115.542z"/>
	<path d="M161.034,97.116c0-7.591-6.176-13.767-13.767-13.767c-7.592,0-13.768,6.176-13.768,13.767s6.176,13.767,13.768,13.767
		C154.858,110.883,161.034,104.708,161.034,97.116z"/>
	<path d="M203.983,92.878c0-7.591-6.176-13.767-13.767-13.767c-7.592,0-13.768,6.176-13.768,13.767
		c0,7.591,6.176,13.767,13.768,13.767C197.807,106.645,203.983,100.469,203.983,92.878z"/>
	<path d="M233.166,79.111c-7.591,0-13.767,6.176-13.767,13.767c0,7.591,6.176,13.767,13.767,13.767
		c7.592,0,13.768-6.176,13.768-13.767C246.933,85.287,240.757,79.111,233.166,79.111z"/>
	<path d="M276.115,83.349c-7.591,0-13.767,6.176-13.767,13.767s6.176,13.767,13.767,13.767c7.592,0,13.768-6.176,13.768-13.767
		S283.707,83.349,276.115,83.349z"/>
	<path d="M220.081,322.774h-16.779c-4.143,0-7.5,3.358-7.5,7.5s3.357,7.5,7.5,7.5h16.779c4.143,0,7.5-3.358,7.5-7.5
		S224.223,322.774,220.081,322.774z"/>
	<path d="M223.312,288.065H200.07c-4.143,0-7.5,3.358-7.5,7.5s3.357,7.5,7.5,7.5h23.242c4.143,0,7.5-3.358,7.5-7.5
		S227.455,288.065,223.312,288.065z"/>
	<path d="M189.338,260.856c0,4.142,3.357,7.5,7.5,7.5h29.705c4.143,0,7.5-3.358,7.5-7.5s-3.357-7.5-7.5-7.5h-29.705
		C192.696,253.356,189.338,256.714,189.338,260.856z"/>
</g>
</svg>